PathFileType	4	(X/Y/Z)	9_coords_data.trc
DataRate	CameraRate	NumFrames	NumMarkers	Units	OrigDataRate	OrigDataStartFrame	OrigNumFrames
30.0	30.0	8	21	m	30.0	38	47
Frame#	Time	THUMB_TIP	THUMB_IP	THUMB_MCP	THUMB_CMC	INDEX_TIP	INDEX_DIP	INDEX_PIP	INDEX_MCP	MIDDLE_TIP	MIDDLE_DIP	MIDDLE_PIP	MIDDLE_MCP	RING_TIP	RING_DIP	RING_PIP	RING_MCP	PINKY_TIP	PINKY_DIP	PINKY_PIP	PINKY_MCP	WRIST
X1	Y1	Z1	X2	Y2	Z2	X3	Y3	Z3	X4	Y4	Z4	X5	Y5	Z5	X6	Y6	Z6	X7	Y7	Z7	X8	Y8	Z8	X9	Y9	Z9	X10	Y10	Z10	X11	Y11	Z11	X12	Y12	Z12	X13	Y13	Z13	X14	Y14	Z14	X15	Y15	Z15	X16	Y16	Z16	X17	Y17	Z17	X18	Y18	Z18	X19	Y19	Z19	X20	Y20	Z20	X21	Y21	Z21
37	1.2333333333333334	0.041671699523925784	0.011814000129699707	1.0319300537109375	0.022167200088500975	0.006824359893798828	1.05181005859375	2.108050044625e-06	0.001767650008201599	1.072010009765625	-0.02257859992980957	0.015257800102233886	1.0898399658203124	0.036070400238037106	0.03831740188598633	0.98510400390625	0.01780380058288574	0.02772920036315918	0.990416015625	-0.0021692800521850584	0.017146699905395506	0.9977429809570313	-0.023540700912475586	0.004620490074157715	1.03031005859375	0.03691389846801758	0.06468689727783203	0.9878369750976562	0.015982099533081055	0.0552036018371582	0.9909420166015624	-0.01136489963531494	0.04359439849853516	0.9965869750976563	-0.03563959884643555	0.025983299255371094	1.0275899658203125	0.028276500701904298	0.08344139862060547	1.0028499755859375	0.006431779861450195	0.07649700164794922	1.0065599975585937	-0.02038909912109375	0.0660208969116211	1.0120599975585938	-0.042929798126220706	0.04679919815063477	1.0365400390625	-0.001567370057106018	0.09860189819335938	1.0253199462890625	-0.018887300491333008	0.09296790313720703	1.0310400390625	-0.03506740188598633	0.08432019805908203	1.0380699462890626	-0.04672959899902344	0.065043701171875	1.054510009765625	-0.05735400009155273	0.016302099227905275	1.112199951171875
38	1.2666666666666666	0.03930149841308594	0.01078380012512207	1.029219970703125	0.020339099884033204	0.005910439968109131	1.0496800537109374	-0.0012700999975204458	0.001041380047798156	1.070300048828125	-0.02362310028076172	0.014902500152587891	1.0890799560546875	0.03278419876098633	0.037869400024414065	0.983072021484375	0.01455459976196289	0.027343700408935547	0.98843798828125	-0.005224569797515869	0.016820899963378905	0.9960850219726562	-0.025820600509643556	0.0043410701751708984	1.0291700439453124	0.03380379867553711	0.06433979797363282	0.9856640014648438	0.013078100204467773	0.05484379959106445	0.9890859985351562	-0.014234399795532227	0.04332089996337891	0.9952940063476563	-0.03789239883422851	0.025790300369262695	1.02675	0.02525379943847656	0.0831333999633789	1.0001300048828126	0.003643610000610351	0.07617870330810547	1.0046900024414063	-0.022994100570678713	0.06569619750976563	1.0109600219726562	-0.04503049850463867	0.04657550048828125	1.0359599609375	-0.006245049953460693	0.1000279998779297	1.0223599853515626	-0.02301259994506836	0.09372850036621094	1.0294000244140624	-0.038224700927734376	0.08463330078125	1.03725	-0.048494701385498044	0.06493289947509766	1.054	-0.057961299896240236	0.015991299629211427	1.1120999755859375
39	1.3	0.03707780075073242	0.009195890426635742	1.027030029296875	0.018583200454711915	0.004371319770812988	1.0479100341796874	-0.0025879900455474847	-0.00018149499595165202	1.0690999755859374	-0.024765199661254882	0.013662099838256836	1.08831005859375	0.030498600006103514	0.036802398681640626	0.98164599609375	0.012071599960327148	0.02640480041503906	0.9869660034179687	-0.0076855201721191405	0.016125099182128906	0.99481201171875	-0.027782899856567383	0.003649169921875	1.0283299560546875	0.0319060001373291	0.06321379852294921	0.9839940185546875	0.011045499801635742	0.05396490097045899	0.9877520141601562	-0.016233200073242186	0.042721099853515625	0.9943909912109375	-0.03970759963989258	0.025319000244140626	1.0261600341796875	0.023535600662231447	0.08226809692382812	0.9984719848632813	0.0018791799545288081	0.07542500305175781	1.0032999877929687	-0.02468000030517578	0.06511270141601562	1.0101599731445312	-0.04624440002441406	0.046098800659179685	1.0354200439453125	-0.008755860328674316	0.10068000030517578	1.0209199829101563	-0.02516550064086914	0.0938907012939453	1.0286500244140624	-0.03979209899902344	0.08454910278320313	1.0369599609375	-0.04936999893188477	0.06453070068359375	1.0536800537109374	-0.05855229949951172	0.015346300125122071	1.1113499755859375
40	1.3333333333333333	0.0353291015625	0.007704460144042969	1.0253699951171875	0.017013799667358397	0.002893860101699829	1.04656005859375	-0.004351950168609619	-0.001616330027580261	1.0679200439453125	-0.02556089973449707	0.012724300384521485	1.087280029296875	0.028798500061035157	0.03597480010986328	0.9807210083007812	0.010329500198364257	0.02566440010070801	0.9861480102539063	-0.009488240242004394	0.015492199897766113	0.9938610229492187	-0.02936389923095703	0.0030780999660491937	1.0273800048828126	0.03034160041809082	0.06230759811401367	0.98256201171875	0.009460989952087401	0.05321730041503906	0.9867550048828125	-0.017855899810791016	0.04217729949951172	0.9935689697265625	-0.041117801666259765	0.024859800338745117	1.0256300048828124	0.02218880081176758	0.0814343032836914	0.9971480102539062	0.00056887400150299	0.0747083969116211	1.0023699951171876	-0.025942300796508787	0.06450579833984375	1.0095800170898437	-0.04739080047607422	0.0456338005065918	1.03493994140625	-0.009934670448303222	0.10027899932861328	1.0201500244140624	-0.02612619972229004	0.09338490295410157	1.0281400146484374	-0.04061309814453125	0.08401730346679688	1.03672998046875	-0.050019500732421875	0.06396699905395507	1.0533499755859375	-0.05913330078125	0.014611300468444824	1.1107099609375
41	1.3666666666666667	0.03429499816894531	0.006670849800109863	1.0245799560546875	0.016116500854492188	0.0017623000144958492	1.045739990234375	-0.0049554800987243654	-0.00244264006614685	1.06768994140625	-0.026033899307250977	0.012074299812316894	1.0863900146484375	0.02782010078430176	0.034899398803710936	0.9802839965820312	0.009327199935913086	0.024622900009155273	0.9855250244140625	-0.010536199569702148	0.014440600395202636	0.9932420043945313	-0.030322099685668947	0.002140189886093139	1.02697998046875	0.029178499221801758	0.06125339889526367	0.981489990234375	0.008341250419616699	0.05216120147705078	0.985906982421875	-0.018949499130249025	0.0411327018737793	0.9929149780273437	-0.04200979995727539	0.02387849998474121	1.0251300048828125	0.021143499374389647	0.08040190124511719	0.9959940185546875	-0.000435193985700607	0.07364040374755859	1.0014000244140624	-0.027016199111938477	0.0634542007446289	1.0089000244140625	-0.04817210006713867	0.044657699584960936	1.0344100341796876	-0.010489299774169921	0.09910910034179687	1.0193200073242188	-0.026724899291992187	0.09233190155029297	1.0273399658203124	-0.0413129997253418	0.08303739929199219	1.03593994140625	-0.05069509887695312	0.06308670043945312	1.05281005859375	-0.05975469970703125	0.013996800422668458	1.110050048828125
42	1.4	0.033829200744628904	0.005910630226135254	1.0243699951171874	0.015619799613952637	0.0009451299905776971	1.04518994140625	-0.005483729839324951	-0.003151259899139404	1.067239990234375	-0.02646500015258789	0.011420999526977539	1.08581005859375	0.02742729949951172	0.03380110168457031	0.9800120239257812	0.008965660095214843	0.023644500732421875	0.9852880249023438	-0.010959799766540528	0.013413700103759765	0.992947998046875	-0.0307495002746582	0.00120287001132965	1.02681005859375	0.028731800079345702	0.06014699935913086	0.981125	0.007991650104522706	0.051113998413085934	0.9854559936523437	-0.019250600814819337	0.04014550018310547	0.9925130004882813	-0.04246540069580078	0.02298870086669922	1.0248599853515625	0.020850599288940428	0.07927799987792969	0.99552197265625	-0.000674363017082214	0.07254879760742187	1.0009299926757813	-0.027328399658203124	0.06247760009765625	1.0084500122070312	-0.04855730056762695	0.04381949996948242	1.03406005859375	-0.010553999900817871	0.09829029846191406	1.01897998046875	-0.026805400848388672	0.091510498046875	1.0270999755859376	-0.04139699935913086	0.08220790100097657	1.0356300048828124	-0.050972900390625	0.062229801177978515	1.05227001953125	-0.060356098175048827	0.013087599754333497	1.110260009765625
43	1.4333333333333333	0.033584400177001955	0.005115139961242676	1.0238599853515624	0.015473699569702149	0.00017359599471092202	1.044760009765625	-0.005660520076751709	-0.0039660799503326415	1.0666300048828126	-0.026623300552368164	0.010441200256347656	1.0851700439453125	0.027415399551391603	0.0331057014465332	0.9800499877929687	0.008833880424499512	0.022965200424194337	0.9850980224609375	-0.011043899536132813	0.012805100440979003	0.99275	-0.03095560073852539	0.0005762770175933831	1.026530029296875	0.028872299194335937	0.05939390182495117	0.9811929931640625	0.008005970001220703	0.05039590072631836	0.9852849731445312	-0.01923819923400879	0.03954019927978516	0.9923870239257813	-0.042566600799560546	0.022450199127197267	1.0246099853515624	0.021212499618530275	0.07849700164794922	0.9958159790039063	-0.000346379995346069	0.07183419799804687	1.00102001953125	-0.027099800109863282	0.061920299530029296	1.0083400268554688	-0.04859260177612305	0.04326179885864258	1.033780029296875	-0.010219200134277344	0.09770819854736328	1.019030029296875	-0.026544300079345703	0.09100559997558594	1.0271199951171874	-0.041207500457763675	0.08172589874267579	1.0356300048828124	-0.05086349868774414	0.06165359878540039	1.05206005859375	-0.06052750015258789	0.012814299583435058	1.1098599853515625
44	1.4666666666666666	0.03349729919433594	0.004228340148925781	1.0240899658203124	0.015279199600219727	-0.0005286980271339411	1.044760009765625	-0.00584552001953125	-0.00452111005783081	1.0668699951171876	-0.026823799133300782	0.0103149995803833	1.0858199462890625	0.02772410011291504	0.03242020034790039	0.9799149780273437	0.009137149810791015	0.022369300842285156	0.9851179809570313	-0.010841099739074708	0.012315799713134765	0.9927219848632812	-0.030839399337768556	0.00011401999741792601	1.026489990234375	0.029435800552368163	0.05858399963378906	0.9813900146484374	0.008468759536743165	0.04971379852294922	0.985280029296875	-0.018933000564575194	0.03897909927368164	0.99225	-0.04240119934082031	0.02203230094909668	1.0245899658203126	0.02190570068359375	0.07769750213623047	0.9962429809570312	0.000247583001852035	0.07123889923095703	1.0011900024414062	-0.026613000869750977	0.06148889923095703	1.0083200073242187	-0.04848540115356445	0.04289220046997071	1.033699951171875	-0.0096287202835083	0.0968990020751953	1.0188599853515625	-0.026006000518798828	0.09035320281982422	1.0268299560546874	-0.040786701202392577	0.08120110321044922	1.035300048828125	-0.050694801330566405	0.061308300018310544	1.0518800048828125	-0.06063600158691406	0.012503199577331543	1.1099200439453125
